<svg width="2351" height="914" viewBox="0 0 2351 914" fill="none" xmlns="http://www.w3.org/2000/svg">
<path d="M412.5 13.279C426.732 5.06194 444.268 5.06195 458.5 13.2791L789.654 204.471C803.887 212.688 812.654 227.874 812.654 244.308V626.692C812.654 643.126 803.887 658.312 789.654 666.529L458.5 857.721C444.268 865.938 426.732 865.938 412.5 857.721L81.3459 666.529C67.1135 658.312 58.3459 643.126 58.3459 626.692V244.308C58.3459 227.874 67.1135 212.688 81.3459 204.471L412.5 13.279Z" fill="#5B9A8B"/>
<path d="M373.75 905C367.517 905 362.417 903.017 358.45 899.05C354.483 895.083 352.5 889.983 352.5 883.75V331.25C352.5 325.017 354.483 319.917 358.45 315.95C362.417 311.983 367.517 310 373.75 310H463.85C473.483 310 480.283 312.267 484.25 316.8C488.783 320.767 491.617 323.883 492.75 326.15L700.15 653.4V331.25C700.15 325.017 702.133 319.917 706.1 315.95C710.067 311.983 715.167 310 721.4 310H823.4C829.633 310 834.733 311.983 838.7 315.95C842.667 319.917 844.65 325.017 844.65 331.25V883.75C844.65 889.417 842.667 894.517 838.7 899.05C834.733 903.017 829.633 905 823.4 905H732.45C723.383 905 716.583 902.733 712.05 898.2C708.083 893.667 705.533 890.55 704.4 888.85L497 574.35V883.75C497 889.983 495.017 895.083 491.05 899.05C487.083 903.017 481.983 905 475.75 905H373.75ZM894.588 905C888.354 905 883.254 903.017 879.287 899.05C875.321 895.083 873.338 889.983 873.338 883.75V484.25C873.338 478.017 875.321 472.917 879.287 468.95C883.254 464.983 888.354 463 894.588 463H987.238C993.471 463 998.571 464.983 1002.54 468.95C1006.5 472.917 1008.49 478.017 1008.49 484.25V513.15C1019.82 497.85 1035.69 484.533 1056.09 473.2C1076.49 461.3 1100.57 455.067 1128.34 454.5C1193.5 453.367 1238.27 478.017 1262.64 528.45C1275.67 506.917 1294.37 489.35 1318.74 475.75C1343.1 461.583 1369.74 454.5 1398.64 454.5C1428.1 454.5 1454.45 461.3 1477.69 474.9C1501.49 487.933 1520.47 508.333 1534.64 536.1C1548.8 563.3 1555.89 598.717 1555.89 642.35V883.75C1555.89 889.983 1553.62 895.083 1549.09 899.05C1545.12 903.017 1540.3 905 1534.64 905H1436.04C1429.8 905 1424.42 903.017 1419.89 899.05C1415.92 895.083 1413.94 889.983 1413.94 883.75V648.3C1413.94 628.467 1411.1 612.883 1405.44 601.55C1399.77 589.65 1392.12 581.15 1382.49 576.05C1372.85 570.95 1361.8 568.4 1349.34 568.4C1339.14 568.4 1328.94 570.95 1318.74 576.05C1309.1 581.15 1301.17 589.65 1294.94 601.55C1289.27 612.883 1286.44 628.467 1286.44 648.3V883.75C1286.44 889.983 1284.45 895.083 1280.49 899.05C1276.52 903.017 1271.42 905 1265.19 905H1166.59C1160.35 905 1155.25 903.017 1151.29 899.05C1147.32 895.083 1145.34 889.983 1145.34 883.75V648.3C1145.34 628.467 1142.22 612.883 1135.99 601.55C1129.75 589.65 1121.82 581.15 1112.19 576.05C1102.55 570.95 1091.79 568.4 1079.89 568.4C1069.69 568.4 1059.49 570.95 1049.29 576.05C1039.65 581.15 1031.72 589.65 1025.49 601.55C1019.82 612.883 1016.99 628.183 1016.99 647.45V883.75C1016.99 889.983 1014.72 895.083 1010.19 899.05C1006.22 903.017 1001.12 905 994.888 905H894.588ZM1774.37 913.5C1707.5 913.5 1654.24 895.367 1614.57 859.1C1574.9 822.833 1554.22 769 1552.52 697.6C1552.52 693.633 1552.52 688.533 1552.52 682.3C1552.52 676.067 1552.52 671.25 1552.52 667.85C1554.22 623.083 1564.14 584.833 1582.27 553.1C1600.97 520.8 1626.47 496.433 1658.77 480C1691.64 463 1729.89 454.5 1773.52 454.5C1823.39 454.5 1864.47 464.417 1896.77 484.25C1929.64 504.083 1954.29 531 1970.72 565C1987.15 599 1995.37 637.817 1995.37 681.45V701.85C1995.37 708.083 1993.1 713.183 1988.57 717.15C1984.6 721.117 1979.79 723.1 1974.12 723.1H1702.12C1702.12 723.667 1702.12 724.517 1702.12 725.65C1702.12 726.783 1702.12 727.917 1702.12 729.05C1702.69 745.483 1705.52 760.5 1710.62 774.1C1715.72 787.7 1723.65 798.467 1734.42 806.4C1745.19 814.333 1758.22 818.3 1773.52 818.3C1784.85 818.3 1794.2 816.6 1801.57 813.2C1809.5 809.233 1816.02 804.983 1821.12 800.45C1826.22 795.35 1830.19 791.1 1833.02 787.7C1838.12 782.033 1842.09 778.633 1844.92 777.5C1848.32 775.8 1853.42 774.95 1860.22 774.95H1965.62C1971.29 774.95 1975.82 776.65 1979.22 780.05C1983.19 782.883 1984.89 787.133 1984.32 792.8C1983.75 802.433 1978.94 814.05 1969.87 827.65C1960.8 841.25 1947.49 854.85 1929.92 868.45C1912.92 881.483 1891.39 892.25 1865.32 900.75C1839.25 909.25 1808.94 913.5 1774.37 913.5ZM1702.12 638.95H1845.77V637.25C1845.77 619.117 1842.94 603.25 1837.27 589.65C1832.17 576.05 1823.95 565.567 1812.62 558.2C1801.85 550.833 1788.82 547.15 1773.52 547.15C1758.22 547.15 1745.19 550.833 1734.42 558.2C1724.22 565.567 1716.29 576.05 1710.62 589.65C1704.95 603.25 1702.12 619.117 1702.12 637.25V638.95ZM2219.58 905C2183.31 905 2151.86 899.333 2125.23 888C2099.16 876.1 2079.04 857.967 2064.88 833.6C2050.71 808.667 2043.63 776.65 2043.63 737.55V574.35H1977.33C1971.09 574.35 1965.71 572.367 1961.18 568.4C1957.21 564.433 1955.23 559.333 1955.23 553.1V484.25C1955.23 478.017 1957.21 472.917 1961.18 468.95C1965.71 464.983 1971.09 463 1977.33 463H2043.63V322.75C2043.63 316.517 2045.61 311.417 2049.58 307.45C2054.11 303.483 2059.21 301.5 2064.88 301.5H2163.48C2169.71 301.5 2174.81 303.483 2178.78 307.45C2182.74 311.417 2184.73 316.517 2184.73 322.75V463H2290.98C2297.21 463 2302.31 464.983 2306.28 468.95C2310.24 472.917 2312.23 478.017 2312.23 484.25V553.1C2312.23 559.333 2310.24 564.433 2306.28 568.4C2302.31 572.367 2297.21 574.35 2290.98 574.35H2184.73V725.65C2184.73 744.917 2188.41 760.217 2195.78 771.55C2203.14 782.883 2215.61 788.55 2233.18 788.55H2298.63C2304.86 788.55 2309.96 790.533 2313.93 794.5C2317.89 798.467 2319.88 803.567 2319.88 809.8V883.75C2319.88 889.983 2317.89 895.083 2313.93 899.05C2309.96 903.017 2304.86 905 2298.63 905H2219.58Z" fill="#FBC252"/>
</svg>
